<svg xmlns="http://www.w3.org/2000/svg" xmlns:xlink="http://www.w3.org/1999/xlink" width="280" zoomAndPan="magnify" viewBox="0 0 210 44.999999" height="60" preserveAspectRatio="xMidYMid meet" version="1.0"><defs><g/><clipPath id="45cc10b4a7"><path d="M 4.5 3.144531 L 45 3.144531 L 45 42.144531 L 4.5 42.144531 Z M 4.5 3.144531 " clip-rule="nonzero"/></clipPath></defs><g fill="#ffffff" fill-opacity="1"><g transform="translate(49.748726, 21.430258)"><g><path d="M 3.195312 0 L 3.195312 -5.261719 L 8.765625 -5.261719 L 8.765625 0 L 10.8125 0 L 10.8125 -12.316406 L 8.765625 -12.316406 L 8.765625 -7.085938 L 3.195312 -7.085938 L 3.195312 -12.316406 L 1.144531 -12.316406 L 1.144531 0 Z M 3.195312 0 "/></g></g></g><g fill="#ffffff" fill-opacity="1"><g transform="translate(61.738299, 21.430258)"><g><path d="M 3.195312 0 L 3.195312 -12.316406 L 1.144531 -12.316406 L 1.144531 0 Z M 3.195312 0 "/></g></g></g><g fill="#ffffff" fill-opacity="1"><g transform="translate(66.11135, 21.430258)"><g><path d="M 8.523438 0 L 8.523438 -1.839844 L 3.195312 -1.839844 L 3.195312 -12.316406 L 1.144531 -12.316406 L 1.144531 0 Z M 8.523438 0 "/></g></g></g><g fill="#ffffff" fill-opacity="1"><g transform="translate(74.825167, 21.430258)"><g><path d="M 8.523438 0 L 8.523438 -1.839844 L 3.195312 -1.839844 L 3.195312 -12.316406 L 1.144531 -12.316406 L 1.144531 0 Z M 8.523438 0 "/></g></g></g><g fill="#ffffff" fill-opacity="1"><g transform="translate(83.538984, 21.430258)"><g/></g></g><g fill="#ffffff" fill-opacity="1"><g transform="translate(87.92817, 21.430258)"><g><path d="M 6.554688 0.210938 C 9.507812 0.210938 11.332031 -1.402344 11.703125 -3.90625 L 9.457031 -3.90625 C 9.199219 -2.371094 8.070312 -1.613281 6.519531 -1.613281 C 4.082031 -1.613281 2.808594 -3.503906 2.808594 -6.164062 C 2.808594 -8.8125 4.082031 -10.683594 6.519531 -10.683594 C 8.070312 -10.683594 9.199219 -9.925781 9.457031 -8.601562 L 11.703125 -8.601562 C 11.347656 -10.925781 9.507812 -12.507812 6.554688 -12.507812 C 2.535156 -12.507812 0.695312 -9.539062 0.695312 -6.164062 C 0.695312 -2.792969 2.535156 0.210938 6.554688 0.210938 Z M 6.554688 0.210938 "/></g></g></g><g fill="#ffffff" fill-opacity="1"><g transform="translate(100.19207, 21.430258)"><g><path d="M 6.585938 0.210938 C 10.585938 0.210938 12.476562 -2.777344 12.476562 -6.164062 C 12.476562 -9.554688 10.585938 -12.507812 6.585938 -12.507812 C 2.566406 -12.507812 0.695312 -9.554688 0.695312 -6.164062 C 0.695312 -2.777344 2.566406 0.210938 6.585938 0.210938 Z M 6.585938 -1.628906 C 4.164062 -1.628906 2.808594 -3.503906 2.808594 -6.164062 C 2.808594 -8.8125 4.164062 -10.683594 6.585938 -10.683594 C 9.023438 -10.683594 10.363281 -8.8125 10.363281 -6.164062 C 10.363281 -3.503906 9.023438 -1.628906 6.585938 -1.628906 Z M 6.585938 -1.628906 "/></g></g></g><g fill="#ffffff" fill-opacity="1"><g transform="translate(113.375755, 21.430258)"><g><path d="M 8.523438 0 L 8.523438 -1.839844 L 3.195312 -1.839844 L 3.195312 -12.316406 L 1.144531 -12.316406 L 1.144531 0 Z M 8.523438 0 "/></g></g></g><g fill="#ffffff" fill-opacity="1"><g transform="translate(122.089572, 21.430258)"><g><path d="M 8.523438 0 L 8.523438 -1.839844 L 3.195312 -1.839844 L 3.195312 -12.316406 L 1.144531 -12.316406 L 1.144531 0 Z M 8.523438 0 "/></g></g></g><g fill="#ffffff" fill-opacity="1"><g transform="translate(130.803389, 21.430258)"><g><path d="M 9.296875 0 L 9.296875 -1.839844 L 3.195312 -1.839844 L 3.195312 -5.261719 L 8.617188 -5.261719 L 8.617188 -7.085938 L 3.195312 -7.085938 L 3.195312 -10.476562 L 9.296875 -10.476562 L 9.296875 -12.316406 L 1.144531 -12.316406 L 1.144531 0 Z M 9.296875 0 "/></g></g></g><g fill="#ffffff" fill-opacity="1"><g transform="translate(140.792009, 21.430258)"><g><path d="M 6.632812 0.210938 C 8.003906 0.210938 9.492188 -0.257812 10.363281 -1.515625 L 10.363281 0 L 12.234375 0 L 12.234375 -6.617188 L 7.410156 -6.617188 L 7.410156 -4.890625 L 10.199219 -4.890625 C 10.167969 -2.792969 8.84375 -1.613281 6.746094 -1.613281 C 4.117188 -1.613281 2.792969 -3.632812 2.792969 -6.179688 C 2.792969 -8.636719 4.019531 -10.683594 6.601562 -10.683594 C 8.28125 -10.683594 9.378906 -9.910156 9.8125 -8.617188 L 12.089844 -8.617188 C 11.507812 -10.941406 9.667969 -12.507812 6.617188 -12.507812 C 2.535156 -12.507812 0.679688 -9.472656 0.679688 -6.148438 C 0.679688 -2.839844 2.519531 0.210938 6.632812 0.210938 Z M 6.632812 0.210938 "/></g></g></g><g fill="#ffffff" fill-opacity="1"><g transform="translate(153.943421, 21.430258)"><g><path d="M 9.296875 0 L 9.296875 -1.839844 L 3.195312 -1.839844 L 3.195312 -5.261719 L 8.617188 -5.261719 L 8.617188 -7.085938 L 3.195312 -7.085938 L 3.195312 -10.476562 L 9.296875 -10.476562 L 9.296875 -12.316406 L 1.144531 -12.316406 L 1.144531 0 Z M 9.296875 0 "/></g></g></g><g fill="#ffffff" fill-opacity="1"><g transform="translate(49.7956, 34.465991)"><g><path d="M 4.421875 0.109375 C 6.289062 0.109375 7.507812 -0.914062 7.773438 -2.539062 L 6.675781 -2.539062 C 6.464844 -1.386719 5.609375 -0.792969 4.398438 -0.792969 C 2.527344 -0.792969 1.5625 -2.230469 1.5625 -4.199219 C 1.5625 -6.15625 2.527344 -7.597656 4.398438 -7.597656 C 5.609375 -7.597656 6.464844 -7.003906 6.675781 -6.070312 L 7.773438 -6.070312 C 7.519531 -7.5 6.289062 -8.5 4.421875 -8.5 C 1.769531 -8.5 0.550781 -6.476562 0.550781 -4.199219 C 0.550781 -1.925781 1.769531 0.109375 4.421875 0.109375 Z M 4.421875 0.109375 "/></g></g></g><g fill="#ffffff" fill-opacity="1"><g transform="translate(58.017791, 34.465991)"><g><path d="M 4.441406 0.109375 C 7.101562 0.109375 8.355469 -1.914062 8.355469 -4.199219 C 8.355469 -6.488281 7.101562 -8.5 4.441406 -8.5 C 1.804688 -8.5 0.550781 -6.488281 0.550781 -4.199219 C 0.550781 -1.914062 1.804688 0.109375 4.441406 0.109375 Z M 4.441406 -0.800781 C 2.582031 -0.800781 1.5625 -2.230469 1.5625 -4.199219 C 1.5625 -6.15625 2.582031 -7.585938 4.441406 -7.585938 C 6.332031 -7.585938 7.34375 -6.15625 7.34375 -4.199219 C 7.34375 -2.230469 6.332031 -0.800781 4.441406 -0.800781 Z M 4.441406 -0.800781 "/></g></g></g><g fill="#ffffff" fill-opacity="1"><g transform="translate(66.932486, 34.465991)"><g><path d="M 3.519531 -3.265625 L 3.519531 -4.078125 L 0.265625 -4.078125 L 0.265625 -3.265625 Z M 3.519531 -3.265625 "/></g></g></g><g fill="#ffffff" fill-opacity="1"><g transform="translate(70.713808, 34.465991)"><g><path d="M 6.289062 0 L 6.289062 -0.914062 L 1.878906 -0.914062 L 1.878906 -3.761719 L 5.773438 -3.761719 L 5.773438 -4.660156 L 1.878906 -4.660156 L 1.878906 -7.476562 L 6.289062 -7.476562 L 6.289062 -8.390625 L 0.867188 -8.390625 L 0.867188 0 Z M 6.289062 0 "/></g></g></g><g fill="#ffffff" fill-opacity="1"><g transform="translate(77.485025, 34.465991)"><g><path d="M 3.167969 0 C 5.960938 0 7.488281 -1.515625 7.488281 -4.167969 C 7.488281 -6.859375 5.96875 -8.390625 3.175781 -8.390625 L 0.867188 -8.390625 L 0.867188 0 Z M 1.878906 -7.476562 L 3.167969 -7.476562 C 5.113281 -7.476562 6.476562 -6.617188 6.476562 -4.167969 C 6.476562 -1.515625 4.914062 -0.914062 3.15625 -0.914062 L 1.878906 -0.914062 Z M 1.878906 -7.476562 "/></g></g></g><g fill="#ffffff" fill-opacity="1"><g transform="translate(85.531331, 34.465991)"><g/></g></g><g fill="#ffffff" fill-opacity="1"><g transform="translate(88.609151, 34.465991)"><g><path d="M 1.878906 0 L 1.878906 -3.539062 L 3.992188 -3.539062 C 5.609375 -3.539062 6.652344 -4.453125 6.652344 -5.992188 C 6.652344 -7.609375 5.597656 -8.390625 3.992188 -8.390625 L 0.867188 -8.390625 L 0.867188 0 Z M 1.878906 -7.476562 L 3.859375 -7.476562 C 4.992188 -7.476562 5.652344 -6.925781 5.652344 -5.960938 C 5.652344 -4.980469 5.015625 -4.441406 3.859375 -4.441406 L 1.878906 -4.441406 Z M 1.878906 -7.476562 "/></g></g></g><g fill="#ffffff" fill-opacity="1"><g transform="translate(95.644177, 34.465991)"><g><path d="M 5.144531 -3.726562 C 6.089844 -4.066406 6.652344 -4.859375 6.652344 -5.992188 C 6.652344 -7.609375 5.597656 -8.390625 3.992188 -8.390625 L 0.867188 -8.390625 L 0.867188 0 L 1.878906 0 L 1.878906 -3.539062 L 4.167969 -3.539062 L 5.652344 0 L 6.761719 0 Z M 1.878906 -4.441406 L 1.878906 -7.476562 L 3.859375 -7.476562 C 4.992188 -7.476562 5.652344 -6.925781 5.652344 -5.960938 C 5.652344 -4.980469 5.015625 -4.441406 3.859375 -4.441406 Z M 1.878906 -4.441406 "/></g></g></g><g fill="#ffffff" fill-opacity="1"><g transform="translate(102.899044, 34.465991)"><g><path d="M 1.878906 0 L 1.878906 -8.390625 L 0.867188 -8.390625 L 0.867188 0 Z M 1.878906 0 "/></g></g></g><g fill="#ffffff" fill-opacity="1"><g transform="translate(105.658088, 34.465991)"><g><path d="M 4.386719 0 L 7.476562 -8.390625 L 6.453125 -8.390625 L 3.816406 -1.035156 L 1.175781 -8.390625 L 0.152344 -8.390625 L 3.242188 0 Z M 4.386719 0 "/></g></g></g><g fill="#ffffff" fill-opacity="1"><g transform="translate(113.286696, 34.465991)"><g><path d="M 1.175781 0 L 1.914062 -2.054688 L 5.71875 -2.054688 L 6.453125 0 L 7.476562 0 L 4.386719 -8.390625 L 3.242188 -8.390625 L 0.152344 0 Z M 3.816406 -7.355469 L 5.375 -2.957031 L 2.253906 -2.957031 Z M 3.816406 -7.355469 "/></g></g></g><g fill="#ffffff" fill-opacity="1"><g transform="translate(120.915305, 34.465991)"><g><path d="M 4.003906 0 L 4.003906 -7.476562 L 6.851562 -7.476562 L 6.851562 -8.390625 L 0.152344 -8.390625 L 0.152344 -7.476562 L 2.992188 -7.476562 L 2.992188 0 Z M 4.003906 0 "/></g></g></g><g fill="#ffffff" fill-opacity="1"><g transform="translate(127.917349, 34.465991)"><g><path d="M 6.289062 0 L 6.289062 -0.914062 L 1.878906 -0.914062 L 1.878906 -3.761719 L 5.773438 -3.761719 L 5.773438 -4.660156 L 1.878906 -4.660156 L 1.878906 -7.476562 L 6.289062 -7.476562 L 6.289062 -8.390625 L 0.867188 -8.390625 L 0.867188 0 Z M 6.289062 0 "/></g></g></g><g fill="#ffffff" fill-opacity="1"><g transform="translate(134.688566, 34.465991)"><g/></g></g><g fill="#ffffff" fill-opacity="1"><g transform="translate(137.766386, 34.465991)"><g><path d="M 4.421875 0.109375 C 6.289062 0.109375 7.507812 -0.914062 7.773438 -2.539062 L 6.675781 -2.539062 C 6.464844 -1.386719 5.609375 -0.792969 4.398438 -0.792969 C 2.527344 -0.792969 1.5625 -2.230469 1.5625 -4.199219 C 1.5625 -6.15625 2.527344 -7.597656 4.398438 -7.597656 C 5.609375 -7.597656 6.464844 -7.003906 6.675781 -6.070312 L 7.773438 -6.070312 C 7.519531 -7.5 6.289062 -8.5 4.421875 -8.5 C 1.769531 -8.5 0.550781 -6.476562 0.550781 -4.199219 C 0.550781 -1.925781 1.769531 0.109375 4.421875 0.109375 Z M 4.421875 0.109375 "/></g></g></g><g fill="#ffffff" fill-opacity="1"><g transform="translate(145.988576, 34.465991)"><g><path d="M 4.441406 0.109375 C 7.101562 0.109375 8.355469 -1.914062 8.355469 -4.199219 C 8.355469 -6.488281 7.101562 -8.5 4.441406 -8.5 C 1.804688 -8.5 0.550781 -6.488281 0.550781 -4.199219 C 0.550781 -1.914062 1.804688 0.109375 4.441406 0.109375 Z M 4.441406 -0.800781 C 2.582031 -0.800781 1.5625 -2.230469 1.5625 -4.199219 C 1.5625 -6.15625 2.582031 -7.585938 4.441406 -7.585938 C 6.332031 -7.585938 7.34375 -6.15625 7.34375 -4.199219 C 7.34375 -2.230469 6.332031 -0.800781 4.441406 -0.800781 Z M 4.441406 -0.800781 "/></g></g></g><g fill="#ffffff" fill-opacity="1"><g transform="translate(154.903271, 34.465991)"><g><path d="M 5.640625 0 L 5.640625 -0.914062 L 1.878906 -0.914062 L 1.878906 -8.390625 L 0.867188 -8.390625 L 0.867188 0 Z M 5.640625 0 "/></g></g></g><g fill="#ffffff" fill-opacity="1"><g transform="translate(160.707165, 34.465991)"><g><path d="M 5.640625 0 L 5.640625 -0.914062 L 1.878906 -0.914062 L 1.878906 -8.390625 L 0.867188 -8.390625 L 0.867188 0 Z M 5.640625 0 "/></g></g></g><g fill="#ffffff" fill-opacity="1"><g transform="translate(166.511058, 34.465991)"><g><path d="M 6.289062 0 L 6.289062 -0.914062 L 1.878906 -0.914062 L 1.878906 -3.761719 L 5.773438 -3.761719 L 5.773438 -4.660156 L 1.878906 -4.660156 L 1.878906 -7.476562 L 6.289062 -7.476562 L 6.289062 -8.390625 L 0.867188 -8.390625 L 0.867188 0 Z M 6.289062 0 "/></g></g></g><g fill="#ffffff" fill-opacity="1"><g transform="translate(173.282275, 34.465991)"><g><path d="M 4.507812 0.109375 C 5.5625 0.109375 6.664062 -0.308594 7.257812 -1.199219 L 7.257812 0 L 8.179688 0 L 8.179688 -4.386719 L 5.179688 -4.386719 L 5.179688 -3.484375 L 7.191406 -3.484375 C 7.191406 -1.8125 6.136719 -0.792969 4.496094 -0.792969 C 2.527344 -0.792969 1.5625 -2.386719 1.5625 -4.222656 C 1.5625 -5.949219 2.429688 -7.597656 4.476562 -7.597656 C 5.695312 -7.597656 6.53125 -6.992188 6.90625 -6.082031 L 8.039062 -6.082031 C 7.574219 -7.507812 6.367188 -8.5 4.496094 -8.5 C 1.769531 -8.5 0.550781 -6.398438 0.550781 -4.1875 C 0.550781 -1.988281 1.757812 0.109375 4.507812 0.109375 Z M 4.507812 0.109375 "/></g></g></g><g fill="#ffffff" fill-opacity="1"><g transform="translate(182.153002, 34.465991)"><g><path d="M 6.289062 0 L 6.289062 -0.914062 L 1.878906 -0.914062 L 1.878906 -3.761719 L 5.773438 -3.761719 L 5.773438 -4.660156 L 1.878906 -4.660156 L 1.878906 -7.476562 L 6.289062 -7.476562 L 6.289062 -8.390625 L 0.867188 -8.390625 L 0.867188 0 Z M 6.289062 0 "/></g></g></g><g clip-path="url(#45cc10b4a7)"><path fill="#bb7321" d="M 16.105469 3.484375 C 16.289062 3.359375 16.449219 3.144531 16.699219 3.207031 C 16.574219 3.484375 16.285156 3.636719 16.140625 3.90625 C 15.414062 5.816406 14.066406 5.875 13.996094 6.769531 C 14.550781 6.445312 15.0625 6.050781 15.632812 5.75 C 15.816406 5.664062 15.96875 5.527344 16.082031 5.359375 C 17.371094 3.605469 19.492188 3.242188 21.605469 3.757812 C 21.722656 3.773438 21.757812 3.875 21.785156 3.972656 C 21.457031 4.019531 21.125 4.003906 20.796875 4.050781 C 19.488281 4.441406 19.132812 6.175781 17.015625 5.832031 C 16.71875 5.84375 16.425781 5.757812 16.128906 5.761719 C 15.492188 6.074219 14.207031 6.886719 13.90625 7.199219 C 14.121094 7.316406 14.367188 7.28125 14.597656 7.269531 C 14.960938 7.222656 15.25 6.988281 15.566406 6.828125 C 16.613281 6.28125 16.679688 6.425781 18.082031 6.597656 C 18.585938 6.699219 19.097656 6.613281 19.605469 6.640625 C 19.597656 6.671875 19.578125 6.734375 19.570312 6.765625 C 19.28125 6.867188 18.980469 6.878906 18.683594 6.929688 C 18.089844 7.152344 17.582031 7.578125 16.964844 7.730469 C 15.753906 7.757812 14.546875 7.570312 13.339844 7.613281 C 12.519531 8.285156 11.730469 9 11.050781 9.820312 C 11.546875 10.140625 12.421875 9.167969 12.824219 8.914062 C 13.171875 8.65625 13.605469 8.550781 14.03125 8.542969 C 16.1875 8.351562 15.03125 8.507812 16.367188 8.214844 C 16.363281 8.257812 16.363281 8.339844 16.363281 8.382812 C 16.097656 8.511719 15.808594 8.570312 15.546875 8.695312 C 15.058594 8.960938 14.359375 9.765625 13.882812 9.828125 C 10.335938 10.375 10.757812 10.199219 10.539062 10.4375 C 9.851562 11.285156 8.988281 12.632812 8.890625 12.964844 C 9.601562 12.953125 10.070312 11.71875 10.757812 11.367188 C 11.621094 10.882812 12.007812 11.144531 13.675781 10.320312 C 13.683594 10.359375 13.691406 10.441406 13.695312 10.484375 C 13.4375 10.722656 13.070312 10.808594 12.828125 11.074219 C 12.269531 11.691406 12.003906 12.207031 11.5 12.40625 C 8.390625 13.539062 8.625 13.371094 8.472656 13.71875 C 8.070312 14.609375 7.679688 15.511719 7.453125 16.464844 C 7.996094 16.484375 8.285156 15.203125 8.894531 14.582031 C 9.523438 14.03125 10.367188 13.84375 11.042969 13.363281 C 11.246094 13.222656 11.4375 13.0625 11.644531 12.921875 C 11.648438 13.007812 11.6875 13.105469 11.609375 13.171875 C 11.414062 13.398438 11.132812 13.542969 10.964844 13.796875 C 10.628906 14.304688 10.445312 14.929688 9.988281 15.351562 C 9.132812 15.90625 7.460938 16.898438 7.257812 17.144531 C 7.054688 17.988281 6.941406 18.847656 6.832031 19.707031 C 7.25 19.65625 7.304688 18.445312 7.84375 17.722656 C 8.359375 17.140625 9.101562 16.832031 9.667969 16.308594 C 9.8125 16.175781 9.820312 15.941406 10.003906 15.839844 C 10.027344 16.132812 9.792969 16.351562 9.738281 16.625 C 9.355469 18.441406 8.96875 18.304688 7.332031 19.886719 C 7.164062 20.054688 6.957031 20.1875 6.820312 20.382812 C 6.773438 20.9375 6.796875 22.636719 6.941406 23.289062 L 7.042969 23.289062 C 7.167969 23.078125 7.273438 22.84375 7.269531 22.59375 C 7.277344 20.839844 7.613281 21.035156 8.890625 19.605469 C 9.085938 19.4375 9.144531 19.183594 9.203125 18.945312 C 9.230469 18.9375 9.285156 18.917969 9.3125 18.910156 C 9.347656 19.195312 9.171875 19.441406 9.171875 19.722656 C 9.078125 21.5625 8.859375 20.851562 7.023438 23.808594 C 7.132812 24.757812 7.398438 25.683594 7.691406 26.59375 C 7.710938 26.710938 7.898438 26.644531 7.894531 26.542969 C 7.996094 26.058594 7.878906 25.5625 7.832031 25.078125 C 7.816406 24.90625 7.734375 24.734375 7.800781 24.566406 C 8.023438 23.761719 8.636719 23.152344 8.96875 22.402344 C 9.054688 22.242188 8.941406 21.980469 9.117188 21.878906 C 9.371094 25.128906 9.40625 23.113281 8.019531 26.957031 C 7.988281 27.0625 7.925781 27.171875 7.957031 27.285156 C 8.277344 28.1875 8.734375 29.03125 9.199219 29.867188 C 9.222656 29.875 9.273438 29.890625 9.296875 29.898438 C 9.324219 29.617188 9.355469 29.320312 9.234375 29.054688 C 8.53125 27.421875 8.964844 27.453125 9.558594 25.484375 C 9.625 25.246094 9.53125 25 9.585938 24.761719 C 9.675781 24.894531 9.75 25.046875 9.753906 25.210938 C 9.789062 25.769531 10.453125 26.996094 10.136719 27.734375 C 9.832031 28.566406 9.683594 29.441406 9.484375 30.300781 C 10.175781 31.414062 11.25 32.710938 11.53125 32.902344 C 11.601562 32.191406 10.6875 31.371094 10.660156 30.613281 C 10.679688 29.90625 10.871094 29.214844 10.914062 28.511719 C 10.945312 28.285156 10.824219 28.085938 10.800781 27.867188 C 11.097656 28.003906 11.0625 28.402344 11.21875 28.648438 C 12.246094 30.183594 11.984375 31.414062 11.835938 33.015625 C 11.835938 33.105469 11.78125 33.21875 11.867188 33.285156 C 12.128906 33.542969 13.851562 35.191406 14.195312 35.183594 C 14.203125 34.578125 13.347656 33.847656 12.980469 33.328125 C 12.609375 32.632812 12.785156 31.820312 12.675781 31.078125 C 12.660156 30.832031 12.453125 30.65625 12.445312 30.414062 C 12.722656 30.617188 12.804688 30.980469 13.054688 31.210938 C 13.523438 31.679688 13.847656 32.269531 14.109375 32.871094 C 14.273438 33.398438 14.292969 33.953125 14.378906 34.492188 C 14.453125 35.671875 14.515625 35.460938 14.847656 35.71875 C 15.546875 36.15625 16.261719 36.582031 17.015625 36.910156 C 16.996094 36.828125 17.011719 36.726562 16.949219 36.660156 C 16.59375 36.238281 16.066406 36.023438 15.667969 35.660156 C 15.179688 34.992188 14.941406 33.449219 14.738281 32.96875 C 14.648438 32.804688 14.507812 32.675781 14.417969 32.511719 C 14.652344 32.53125 14.769531 32.753906 14.917969 32.910156 C 15.085938 33.117188 15.960938 33.636719 16.453125 34.542969 C 16.902344 35.550781 17.238281 37.046875 17.625 37.199219 C 18.542969 37.589844 19.492188 37.914062 20.460938 38.152344 C 20.46875 38.113281 20.488281 38.035156 20.496094 37.996094 C 20.253906 37.609375 19.488281 37.371094 18.785156 36.972656 C 18.015625 36.542969 18.066406 35.785156 17.507812 34.960938 C 17.351562 34.707031 17 34.625 16.90625 34.324219 C 17.25 34.371094 17.5 34.640625 17.796875 34.800781 C 18.128906 35.003906 18.507812 35.125 18.828125 35.355469 C 19.832031 36.175781 20.246094 37.511719 21.261719 38.316406 C 21.671875 38.421875 23.320312 38.679688 23.617188 38.625 C 23.613281 38.132812 22.546875 38.144531 21.773438 37.683594 C 21.101562 37.234375 20.96875 36.285156 20.234375 35.910156 C 20.121094 35.847656 20.023438 35.761719 19.957031 35.652344 C 20.277344 35.679688 20.5625 35.84375 20.871094 35.929688 C 21.304688 36.09375 21.796875 36.113281 22.191406 36.375 C 23.0625 36.960938 23.464844 38.015625 24.304688 38.640625 C 24.445312 38.707031 24.613281 38.667969 24.765625 38.683594 C 24.949219 38.667969 25.164062 38.722656 25.320312 38.597656 C 25.597656 38.417969 25.765625 38.121094 25.996094 37.886719 C 27.585938 35.832031 27.515625 36.355469 28.675781 35.933594 C 28.980469 35.832031 29.277344 35.6875 29.597656 35.652344 C 29.476562 35.890625 29.183594 35.945312 29.003906 36.125 C 28.554688 36.582031 28.363281 37.242188 27.84375 37.640625 C 27.34375 37.988281 26.710938 38.039062 26.171875 38.308594 C 26.046875 38.355469 25.984375 38.476562 25.914062 38.578125 C 26.058594 38.695312 26.238281 38.609375 26.40625 38.609375 C 28.507812 38.355469 28.265625 38.359375 28.550781 38.09375 C 29.320312 37.332031 29.753906 36.304688 30.511719 35.542969 C 30.855469 35.191406 31.335938 35.058594 31.742188 34.808594 C 32.035156 34.640625 32.296875 34.410156 32.625 34.304688 C 32.621094 34.347656 32.617188 34.429688 32.617188 34.46875 C 32.367188 34.664062 32.09375 34.851562 31.941406 35.140625 C 31.671875 35.570312 31.558594 36.082031 31.277344 36.507812 C 30.808594 37.261719 29.183594 37.464844 29.035156 38.101562 C 29.582031 38.148438 31.511719 37.386719 32.050781 37.148438 C 32.851562 36.015625 32.566406 34.363281 34.46875 33.082031 C 34.71875 32.921875 34.8125 32.550781 35.132812 32.511719 C 35.046875 32.71875 34.832031 32.851562 34.777344 33.078125 C 34.351562 34.679688 34.230469 35.160156 33.914062 35.640625 C 33.523438 36 33.015625 36.210938 32.65625 36.605469 C 32.585938 36.683594 32.566406 36.789062 32.539062 36.886719 C 33.308594 36.617188 34.902344 35.644531 35.058594 35.4375 C 35.148438 35.136719 35.207031 33.992188 35.367188 33.195312 C 35.472656 32.679688 35.761719 32.222656 36.039062 31.78125 C 36.246094 31.441406 36.582031 31.207031 36.769531 30.855469 C 36.851562 30.695312 36.953125 30.542969 37.089844 30.421875 C 37.101562 30.453125 37.121094 30.515625 37.132812 30.546875 C 36.636719 31.191406 37.03125 31.503906 36.742188 32.886719 C 36.699219 33.136719 36.585938 33.378906 36.410156 33.5625 C 35.359375 34.714844 35.40625 34.820312 35.382812 35.191406 C 35.808594 35.058594 37.199219 33.796875 37.757812 33.222656 C 37.671875 32.84375 37.699219 32.449219 37.632812 32.066406 C 37.550781 30.921875 37.449219 30.570312 38.007812 29.238281 C 38.132812 28.910156 38.390625 28.648438 38.484375 28.308594 C 38.554688 28.148438 38.554688 27.898438 38.769531 27.863281 C 38.375 28.765625 39.132812 30.207031 38.820312 31.027344 C 38.566406 31.644531 38.0625 32.175781 38.015625 32.863281 C 38.355469 32.75 39.601562 31.054688 40.042969 30.351562 C 40.0625 29.941406 39.65625 28.523438 39.617188 28.34375 C 39.433594 27.480469 39.191406 27.777344 39.453125 26.476562 C 39.570312 25.886719 39.699219 26.066406 39.867188 24.867188 C 39.898438 24.855469 39.960938 24.832031 39.992188 24.820312 C 39.992188 25.03125 39.933594 25.242188 39.984375 25.453125 C 40.199219 26.144531 40.527344 26.804688 40.667969 27.519531 C 40.769531 28.140625 40.445312 28.710938 40.246094 29.277344 C 40.230469 29.488281 40.183594 29.734375 40.316406 29.917969 C 40.820312 29.101562 41.238281 28.234375 41.589844 27.34375 C 41.667969 27.203125 41.574219 27.058594 41.535156 26.921875 C 41.226562 26.121094 40.9375 25.3125 40.535156 24.554688 C 40.039062 23.773438 40.488281 23.066406 40.421875 21.925781 C 40.453125 21.921875 40.515625 21.914062 40.546875 21.90625 C 40.550781 22.046875 40.546875 22.191406 40.566406 22.332031 C 40.890625 23.164062 41.621094 23.804688 41.777344 24.703125 C 41.730469 25.15625 41.414062 26.828125 41.855469 26.640625 C 41.964844 26.304688 42.6875 23.984375 42.472656 23.703125 C 40.703125 20.941406 40.636719 21.476562 40.453125 20.449219 C 40.386719 20.160156 40.441406 19.859375 40.367188 19.570312 C 40.328125 19.339844 40.199219 19.09375 40.320312 18.871094 C 40.410156 19.105469 40.4375 19.375 40.617188 19.5625 C 40.980469 19.960938 41.390625 20.316406 41.75 20.71875 C 42.695312 21.878906 42.015625 22.457031 42.484375 23.226562 C 42.511719 23.296875 42.5625 23.316406 42.628906 23.28125 C 42.722656 22.839844 42.816406 21.210938 42.742188 20.378906 C 40.722656 18.300781 40.285156 18.714844 39.832031 16.667969 C 39.765625 16.382812 39.558594 16.140625 39.550781 15.835938 C 39.746094 15.960938 39.761719 16.21875 39.945312 16.355469 C 40.53125 16.875 41.296875 17.1875 41.78125 17.820312 C 42.261719 18.5625 42.300781 19.597656 42.695312 19.648438 C 42.695312 18.859375 42.3125 17.1875 42.308594 17.128906 C 41.414062 16.46875 40.445312 15.929688 39.523438 15.3125 C 39.089844 14.867188 38.910156 14.242188 38.550781 13.742188 C 38.335938 13.496094 38.054688 13.3125 37.859375 13.050781 C 37.894531 13.011719 37.933594 12.976562 37.96875 12.941406 C 39.421875 14.148438 40.449219 14.007812 41.003906 15.035156 C 41.21875 15.335938 41.695312 16.546875 42.109375 16.457031 C 41.84375 15.429688 41.445312 14.433594 40.960938 13.492188 C 40.105469 13.097656 39.199219 12.832031 38.320312 12.503906 C 38.101562 12.414062 37.855469 12.371094 37.691406 12.191406 C 37.332031 11.824219 37.035156 11.402344 36.683594 11.03125 C 36.46875 10.804688 36.152344 10.722656 35.910156 10.535156 C 35.835938 10.488281 35.855469 10.390625 35.835938 10.320312 C 36.210938 10.425781 36.523438 10.683594 36.902344 10.769531 C 37.527344 10.972656 38.203125 11.03125 38.789062 11.355469 C 39.578125 11.785156 39.90625 12.925781 40.667969 12.960938 C 40.242188 12.058594 39.644531 11.25 39.042969 10.457031 C 38.886719 10.171875 37.695312 10.160156 35.652344 9.824219 C 35.265625 9.757812 34.609375 9.128906 34.203125 8.808594 C 33.941406 8.601562 33.597656 8.570312 33.304688 8.429688 C 33.214844 8.398438 33.183594 8.300781 33.148438 8.226562 C 33.535156 8.246094 33.886719 8.433594 34.273438 8.441406 C 34.816406 8.515625 35.371094 8.511719 35.917969 8.578125 C 37.0625 8.734375 37.367188 9.894531 38.464844 9.890625 C 38.464844 9.734375 38.347656 9.628906 38.253906 9.519531 C 37.601562 8.847656 36.953125 8.164062 36.199219 7.605469 C 34.941406 7.585938 32.773438 7.824219 32.457031 7.699219 C 32.007812 7.539062 31.601562 7.28125 31.179688 7.0625 C 30.828125 6.835938 30.386719 6.914062 30 6.78125 C 29.996094 6.742188 29.988281 6.660156 29.984375 6.621094 C 32.089844 6.707031 32.265625 6.34375 33.125 6.46875 C 34.1875 6.71875 34.671875 7.558594 35.632812 7.207031 C 35.277344 6.808594 33.933594 6.023438 33.464844 5.765625 C 33.160156 5.714844 31.964844 6.074219 30.996094 5.652344 C 30.242188 5.296875 29.785156 4.535156 29.050781 4.160156 C 28.648438 3.941406 28.175781 4.082031 27.75 3.953125 C 27.964844 3.632812 28.40625 3.707031 28.730469 3.609375 C 32.816406 3.308594 33.160156 5.339844 33.824219 5.691406 C 34.316406 5.976562 34.808594 6.269531 35.273438 6.597656 C 35.367188 6.667969 35.464844 6.722656 35.574219 6.761719 C 35.449219 5.898438 34.15625 5.71875 33.507812 4.109375 C 33.28125 3.527344 32.914062 3.507812 32.890625 3.191406 C 33.132812 3.171875 33.289062 3.375 33.472656 3.496094 C 33.785156 3.75 34.191406 3.820312 34.519531 4.046875 C 35.507812 4.648438 35.730469 6.3125 35.996094 7.085938 C 36.199219 7.347656 36.515625 7.488281 36.742188 7.726562 C 37.160156 8.074219 37.539062 8.457031 37.929688 8.828125 C 38.101562 9.007812 38.253906 9.203125 38.453125 9.347656 C 38.484375 8.3125 37.035156 7.671875 36.871094 6.484375 C 36.816406 6.058594 36.746094 5.570312 36.378906 5.292969 C 36.171875 5.078125 35.828125 4.96875 35.742188 4.664062 C 36.035156 4.59375 36.210938 4.847656 36.390625 5.027344 C 36.820312 5.472656 37.375 5.773438 37.804688 6.214844 C 38.910156 7.398438 38.660156 8.972656 38.792969 9.75 C 39.320312 10.414062 39.847656 11.078125 40.292969 11.800781 C 40.394531 11.945312 40.457031 12.125 40.625 12.207031 C 40.671875 11.347656 39.722656 10.695312 39.722656 9.359375 C 39.722656 8.945312 39.722656 8.523438 39.582031 8.128906 C 39.417969 7.683594 38.84375 7.328125 38.808594 7.03125 C 38.882812 7.027344 38.953125 7.023438 39.027344 7.019531 C 39.203125 7.207031 39.363281 7.410156 39.511719 7.625 C 39.988281 8.230469 40.691406 8.707031 40.910156 9.484375 C 41.113281 10.410156 40.839844 11.351562 40.875 12.28125 C 40.8125 12.984375 41.257812 13.167969 42.121094 15.597656 C 42.15625 15.605469 42.222656 15.621094 42.253906 15.632812 C 42.304688 14.679688 41.613281 13.9375 41.945312 12.675781 C 42.003906 12.296875 42.105469 11.914062 42.050781 11.527344 C 41.921875 11.003906 41.523438 10.605469 41.355469 10.097656 C 41.433594 10.097656 41.542969 10.035156 41.601562 10.117188 C 41.945312 10.535156 42.148438 11.046875 42.4375 11.503906 C 42.730469 12.039062 43.054688 12.605469 43.0625 13.238281 C 43.023438 14.25 42.652344 15.207031 42.421875 16.183594 C 42.308594 16.652344 42.691406 17.125 42.863281 18.902344 C 42.902344 18.910156 42.976562 18.929688 43.011719 18.941406 C 43.074219 18.285156 42.851562 17.632812 42.996094 16.980469 C 43.113281 16.375 43.527344 15.878906 43.652344 15.273438 C 43.738281 14.699219 43.363281 14.195312 43.316406 13.636719 C 43.359375 13.636719 43.449219 13.636719 43.492188 13.636719 C 43.652344 13.863281 44.414062 15.882812 44.214844 17.027344 C 43.882812 18.148438 43.09375 19.214844 42.96875 19.726562 C 43.082031 20.796875 43.023438 21.875 42.933594 22.945312 C 43.4375 22.898438 43.085938 21.28125 43.898438 20.1875 C 45 18.644531 44.425781 18.589844 44.535156 17.445312 C 44.578125 17.449219 44.660156 17.457031 44.703125 17.460938 C 44.859375 17.9375 44.84375 18.449219 44.878906 18.949219 C 44.964844 19.375 44.941406 19.808594 44.941406 20.242188 C 44.972656 21.019531 44.214844 21.878906 43.640625 22.605469 C 42.964844 23.476562 42.84375 23.289062 42.769531 24.054688 C 42.660156 24.773438 42.445312 25.472656 42.289062 26.183594 C 42.617188 26.117188 42.6875 25.066406 43.160156 24.410156 C 43.472656 23.859375 44.320312 23.574219 44.539062 22.796875 C 44.628906 22.476562 44.652344 22.136719 44.761719 21.816406 C 44.8125 21.722656 44.964844 21.808594 44.941406 21.90625 C 44.882812 22.472656 44.707031 23.023438 44.660156 23.59375 C 44.335938 24.90625 44.410156 24.785156 43.617188 25.5 C 43.179688 25.898438 42.703125 26.246094 42.234375 26.605469 C 42.039062 26.738281 41.996094 26.984375 41.914062 27.191406 C 41.679688 27.878906 41.324219 28.515625 41.046875 29.183594 C 41.605469 29.148438 41.6875 27.464844 42.910156 27.109375 C 44.332031 26.648438 43.953125 25.871094 44.398438 25.640625 C 44.433594 25.78125 44.414062 25.929688 44.359375 26.066406 C 43.191406 28.953125 42.890625 28.4375 40.8125 29.574219 C 40.730469 29.679688 40.007812 31.035156 38.910156 32.308594 C 38.894531 32.351562 38.859375 32.433594 38.84375 32.476562 C 39.679688 32.222656 39.765625 31.175781 40.804688 30.722656 C 41.203125 30.5625 41.652344 30.515625 42.015625 30.273438 C 42.671875 29.828125 42.402344 29.929688 43.003906 29.097656 C 43.046875 29.097656 43.128906 29.101562 43.167969 29.101562 C 43.199219 29.507812 42.886719 29.808594 42.710938 30.144531 C 41.503906 32.046875 41.707031 31.691406 38.773438 32.800781 C 38.597656 32.871094 38.394531 32.910156 38.257812 33.054688 C 36.625 34.785156 36.214844 34.757812 36.15625 35.09375 C 37.109375 34.898438 37.539062 33.824219 38.480469 33.609375 C 38.96875 33.488281 39.507812 33.683594 39.976562 33.453125 C 40.234375 33.296875 40.429688 33.058594 40.671875 32.878906 C 40.792969 32.800781 40.851562 33.003906 40.78125 33.082031 C 40.558594 33.445312 39.28125 34.6875 38.605469 34.984375 C 37.902344 35.316406 35.800781 35.246094 35.546875 35.433594 C 34.863281 35.925781 34.144531 36.378906 33.390625 36.761719 C 33.273438 36.820312 33.144531 36.878906 33.078125 37 C 33.261719 37.003906 33.457031 37.019531 33.636719 36.964844 C 34.242188 36.8125 34.621094 36.203125 35.253906 36.117188 C 35.765625 36.082031 36.289062 36.175781 36.796875 36.066406 C 37.617188 35.910156 37.203125 36.070312 38.160156 35.464844 C 38.191406 35.484375 38.253906 35.523438 38.285156 35.546875 C 38.175781 35.878906 37.839844 36.054688 37.570312 36.246094 C 36.871094 36.734375 36.140625 37.3125 35.25 37.34375 C 32.527344 37.191406 32.585938 37.140625 32.324219 37.289062 C 31.703125 37.574219 31.058594 37.816406 30.40625 38.027344 C 30.207031 38.09375 30.003906 38.144531 29.816406 38.238281 C 30.367188 38.628906 31.21875 38.039062 31.75 37.863281 C 32.078125 37.761719 32.394531 37.933594 32.707031 38.007812 C 33.152344 38.136719 33.621094 38.097656 34.078125 38.089844 C 34.496094 38.101562 34.824219 37.796875 35.21875 37.699219 C 35.242188 37.726562 35.285156 37.777344 35.308594 37.804688 C 35.058594 38.085938 34.695312 38.226562 34.351562 38.359375 C 33.535156 38.675781 32.707031 39.046875 31.816406 39.035156 C 30.109375 38.824219 29.652344 38.464844 29.28125 38.359375 C 26.921875 38.96875 26.617188 38.667969 26.359375 38.949219 C 26.613281 39.027344 26.882812 39.144531 27.15625 39.070312 C 27.574219 39.007812 28.007812 38.835938 28.421875 38.984375 C 28.648438 39.058594 28.832031 39.21875 29.050781 39.3125 C 29.511719 39.535156 30.398438 39.691406 31.472656 39.476562 C 31.492188 39.507812 31.53125 39.566406 31.546875 39.597656 C 31.257812 39.84375 30.851562 39.84375 30.496094 39.902344 C 28.042969 40.347656 27.988281 40.121094 27.144531 39.734375 C 26.6875 39.511719 26.246094 39.246094 25.84375 38.929688 C 25.675781 38.902344 25.503906 38.921875 25.335938 38.929688 C 25.476562 39.125 25.714844 39.207031 25.894531 39.355469 C 27.800781 40.792969 27.753906 41.710938 29.492188 41.722656 C 28.6875 42.003906 27.824219 42.144531 26.972656 42.097656 C 26.5 39.875 25.179688 38.929688 24.710938 38.984375 C 23.558594 39.332031 22.859375 40.886719 22.578125 42.109375 C 21.722656 42.128906 20.855469 42.011719 20.050781 41.71875 C 21.863281 41.6875 21.839844 40.695312 23.761719 39.28125 C 23.90625 39.167969 24.105469 39.109375 24.179688 38.929688 C 23.992188 38.9375 23.773438 38.855469 23.617188 39 C 23.152344 39.359375 22.628906 39.644531 22.09375 39.886719 C 21.28125 40.332031 20.324219 40.117188 19.460938 39.980469 C 19.007812 39.84375 18.503906 39.898438 18.082031 39.664062 C 18.0625 39.605469 18.046875 39.542969 18.039062 39.480469 C 18.398438 39.507812 18.75 39.628906 19.113281 39.59375 C 19.5 39.542969 19.898438 39.546875 20.269531 39.414062 C 20.6875 39.296875 21.015625 38.933594 21.464844 38.914062 C 21.832031 38.933594 22.183594 39.046875 22.546875 39.089844 C 22.757812 39.117188 22.957031 39.03125 23.152344 38.972656 C 23.15625 38.945312 23.164062 38.886719 23.167969 38.859375 C 22.191406 38.75 21.214844 38.601562 20.265625 38.355469 C 19.503906 38.722656 18.675781 38.910156 17.84375 39.027344 C 16.875 39.074219 15.976562 38.648438 15.089844 38.324219 C 14.828125 38.203125 14.542969 38.097656 14.339844 37.878906 C 14.261719 37.816406 14.289062 37.648438 14.417969 37.726562 C 15.054688 37.953125 14.980469 38.183594 16.566406 38.074219 C 17 38.035156 17.417969 37.730469 17.859375 37.882812 C 18.550781 38.085938 18.746094 38.488281 19.625 38.320312 C 19.644531 38.289062 19.683594 38.222656 19.703125 38.191406 C 18.851562 37.957031 18.019531 37.652344 17.21875 37.277344 C 16.984375 37.148438 16.714844 37.203125 16.460938 37.214844 C 15.886719 37.285156 15.300781 37.246094 14.726562 37.324219 C 14.363281 37.367188 13.988281 37.335938 13.640625 37.226562 C 12.929688 36.980469 11.566406 35.992188 11.339844 35.726562 C 11.304688 35.648438 11.292969 35.464844 11.421875 35.476562 C 11.820312 35.722656 12.117188 36.230469 14.035156 36.109375 C 15.015625 36.019531 15.425781 37.1875 16.484375 36.992188 C 16.421875 36.921875 16.351562 36.863281 16.269531 36.824219 C 15.480469 36.402344 14.714844 35.945312 13.992188 35.425781 C 13.515625 35.277344 13 35.324219 12.507812 35.238281 C 11.25 35.160156 10.839844 35.125 9.804688 34.148438 C 9.433594 33.789062 9.007812 33.476562 8.738281 33.027344 C 8.753906 32.980469 8.789062 32.886719 8.804688 32.839844 C 9.113281 32.996094 9.304688 33.308594 9.609375 33.472656 C 10.136719 33.691406 10.730469 33.449219 11.261719 33.664062 C 12.097656 33.957031 12.515625 34.949219 13.429688 35.074219 C 13.378906 34.984375 13.320312 34.902344 13.238281 34.84375 C 12.558594 34.300781 11.917969 33.707031 11.324219 33.070312 C 11.082031 32.769531 8.566406 32.191406 7.917969 31.582031 C 7.34375 31.03125 6.953125 30.328125 6.550781 29.652344 C 6.449219 29.460938 6.277344 29.210938 6.480469 29.027344 C 6.945312 29.511719 6.855469 29.890625 7.648438 30.335938 C 8.066406 30.574219 8.574219 30.589844 8.988281 30.839844 C 9.726562 31.25 10.039062 32.375 10.777344 32.488281 C 10.625 32.242188 10.414062 32.039062 10.238281 31.8125 C 7.753906 28.515625 9.941406 30.324219 6.816406 28.613281 C 6.230469 28.285156 5.847656 27.480469 5.441406 26.632812 C 5.308594 26.3125 5.089844 26 5.175781 25.632812 C 5.492188 25.894531 5.484375 26.375 5.804688 26.640625 C 6.164062 27.046875 6.757812 27.046875 7.167969 27.375 C 7.871094 27.902344 7.988281 29.03125 8.527344 29.234375 C 8.507812 29.144531 8.480469 29.050781 8.433594 28.96875 C 7.460938 27.019531 7.597656 26.78125 7.378906 26.648438 C 5.148438 24.980469 5.144531 24.804688 4.925781 23.71875 C 4.769531 22.535156 4.574219 22.15625 4.644531 21.785156 C 4.683594 21.78125 4.761719 21.78125 4.800781 21.78125 C 4.9375 22.269531 4.921875 22.824219 5.25 23.242188 C 5.585938 23.714844 6.144531 23.96875 6.449219 24.464844 C 6.964844 25.300781 6.914062 26.089844 7.269531 26.132812 C 7.066406 25.34375 6.839844 24.554688 6.746094 23.742188 C 6.710938 23.300781 5.75 22.636719 4.84375 21.117188 C 4.5 20.460938 4.613281 19.691406 4.675781 18.984375 C 4.765625 18.476562 4.652344 17.933594 4.875 17.457031 C 4.917969 17.453125 5.003906 17.453125 5.042969 17.453125 C 5.078125 17.914062 4.949219 18.371094 4.984375 18.835938 C 5.199219 19.949219 6.019531 20.148438 6.203125 21.636719 C 6.285156 22.144531 6.304688 22.882812 6.625 22.886719 C 6.578125 22.023438 6.46875 21.160156 6.554688 20.300781 C 6.550781 20.019531 6.660156 19.710938 6.5 19.453125 C 5.378906 17.316406 4.992188 16.949219 5.554688 15.101562 C 5.691406 14.652344 5.78125 14.183594 6 13.761719 C 6.046875 13.667969 6.144531 13.621094 6.226562 13.566406 C 6.261719 14.089844 5.890625 14.554688 5.890625 15.078125 C 5.945312 15.777344 6.445312 16.328125 6.570312 17.007812 C 6.6875 18.324219 6.378906 18.59375 6.605469 18.960938 C 6.792969 18.730469 6.609375 18.695312 7.121094 16.664062 C 7.222656 16.179688 7.003906 15.714844 6.882812 15.257812 C 6.316406 12.917969 6.296875 12.980469 7.394531 11.035156 C 7.582031 10.71875 7.722656 10.367188 7.980469 10.097656 C 8.046875 10.078125 8.117188 10.066406 8.1875 10.066406 C 8.074219 10.644531 7.546875 11.054688 7.496094 11.65625 C 7.46875 12.320312 7.773438 12.957031 7.683594 13.621094 C 7.65625 14.3125 7.25 14.945312 7.328125 15.648438 C 7.355469 15.640625 7.417969 15.632812 7.449219 15.628906 C 7.707031 14.730469 8.121094 13.886719 8.527344 13.050781 C 8.832031 12.4375 8.578125 11.042969 8.589844 10.5 C 8.613281 9.492188 8.402344 9.316406 9.773438 7.953125 C 10.050781 7.671875 10.226562 7.308594 10.523438 7.050781 C 10.589844 7.027344 10.65625 7.011719 10.726562 7.003906 C 10.710938 7.101562 10.71875 7.21875 10.636719 7.289062 C 9.78125 8.203125 9.925781 8.078125 9.824219 9.421875 C 9.867188 10.546875 8.917969 11.386719 8.929688 12.183594 C 9.195312 12.125 8.953125 12.035156 10.75 9.777344 C 10.886719 9.234375 10.707031 7.925781 11.324219 6.765625 C 11.628906 6.238281 12.132812 5.871094 12.605469 5.511719 C 12.925781 5.289062 13.175781 4.976562 13.480469 4.734375 C 13.554688 4.660156 13.664062 4.65625 13.761719 4.632812 C 13.761719 4.679688 13.761719 4.773438 13.761719 4.820312 C 13.507812 5.058594 13.195312 5.230469 12.976562 5.507812 C 12.636719 5.976562 12.777344 6.617188 12.480469 7.101562 C 12.027344 7.917969 11.140625 8.46875 11.105469 9.324219 C 11.3125 9.207031 11.449219 9.007812 11.617188 8.84375 C 11.945312 8.515625 12.273438 8.183594 12.632812 7.886719 C 12.910156 7.613281 13.253906 7.410156 13.527344 7.128906 C 13.835938 6.589844 13.890625 4.636719 15.222656 3.941406 C 15.511719 3.777344 15.84375 3.695312 16.105469 3.484375 Z M 16.105469 3.484375 " fill-opacity="1" fill-rule="nonzero"/></g><path fill="#bb7321" d="M 24.410156 8.105469 C 24.652344 8.085938 24.890625 8.09375 25.132812 8.109375 C 25.199219 8.761719 25.128906 9.425781 25.171875 10.082031 C 25.601562 9.652344 25.867188 9.078125 26.304688 8.652344 C 26.261719 13.375 26.371094 13.390625 26.246094 13.578125 C 25.890625 14.070312 25.503906 14.539062 25.171875 15.042969 C 25.148438 15.355469 25.144531 15.679688 25.183594 15.992188 C 26.496094 14.796875 27.605469 15.171875 29.941406 14.894531 C 30.894531 14.742188 31.902344 14.535156 32.648438 13.878906 C 32.898438 13.664062 33.007812 13.347656 33.082031 13.039062 C 33.367188 12.707031 33.933594 12.648438 34.265625 12.945312 C 34.5 13.238281 34.484375 13.679688 34.265625 13.976562 C 34.109375 14.167969 33.863281 14.246094 33.660156 14.375 C 33.710938 14.507812 38.238281 24.707031 38.542969 24.960938 C 35.667969 27.910156 31.015625 27.695312 28.4375 24.949219 C 28.742188 24.832031 28.3125 25.605469 33.066406 15.117188 C 33.15625 14.921875 33.25 14.726562 33.3125 14.519531 C 30.746094 15.140625 26.214844 15.441406 25.191406 17.808594 C 25.144531 17.914062 25.136719 32.273438 25.179688 32.644531 C 25.507812 32.46875 25.835938 32.292969 26.171875 32.132812 C 25.785156 33.105469 25.304688 34.042969 24.890625 35.007812 C 24.847656 35.066406 24.84375 35.226562 24.742188 35.160156 C 24.285156 34.148438 23.820312 33.140625 23.367188 32.125 C 23.726562 32.269531 24.046875 32.5 24.40625 32.644531 C 24.414062 30.394531 24.414062 18.796875 24.40625 17.886719 C 23.457031 15.425781 18.519531 15.085938 16.25 14.519531 C 16.296875 14.703125 16.023438 14.074219 20.824219 24.683594 C 20.867188 24.820312 20.972656 24.90625 21.101562 24.96875 C 18.476562 27.789062 13.683594 27.804688 11.039062 24.960938 C 11.289062 24.738281 15.75 14.75 15.894531 14.371094 C 15.695312 14.253906 15.476562 14.164062 15.308594 14 C 14.738281 13.230469 15.527344 12.296875 16.449219 12.984375 C 16.605469 13.320312 16.5 13.972656 18.128906 14.554688 C 20.589844 15.402344 22.601562 14.542969 24.089844 15.765625 C 24.191406 15.847656 24.292969 15.929688 24.40625 16 C 24.414062 15.695312 24.417969 15.386719 24.410156 15.082031 C 24.070312 14.539062 23.640625 14.054688 23.285156 13.519531 C 23.257812 13.351562 23.273438 8.671875 23.273438 8.648438 C 23.832031 9.300781 24.160156 9.910156 24.402344 10.085938 C 24.425781 9.425781 24.40625 8.765625 24.410156 8.105469 M 24.613281 8.515625 C 24.644531 8.832031 24.550781 9.167969 24.675781 9.46875 C 24.972656 9.335938 24.9375 9.738281 24.929688 8.492188 C 24.824219 8.5 24.71875 8.507812 24.613281 8.515625 M 25.25 10.542969 C 25.097656 10.714844 25.152344 10.964844 25.128906 11.171875 C 25.164062 11.164062 25.226562 11.148438 25.257812 11.136719 C 25.484375 10.867188 25.675781 10.570312 25.894531 10.292969 C 26.070312 10.09375 25.996094 9.8125 25.992188 9.574219 C 25.722656 9.878906 25.503906 10.226562 25.25 10.542969 M 23.539062 9.621094 C 23.539062 9.789062 23.53125 9.953125 23.539062 10.121094 C 23.703125 10.398438 23.921875 10.636719 24.105469 10.898438 C 24.191406 11.015625 24.253906 11.175781 24.417969 11.1875 C 24.410156 11.007812 24.441406 10.816406 24.390625 10.640625 C 24.238281 10.410156 24.054688 10.207031 23.902344 9.976562 C 23.800781 9.839844 23.722656 9.65625 23.539062 9.621094 M 25.675781 11.101562 C 25.503906 11.351562 25.292969 11.578125 25.136719 11.839844 C 25.117188 11.988281 25.125 12.136719 25.125 12.289062 C 25.15625 12.273438 25.222656 12.246094 25.253906 12.230469 C 26.207031 10.925781 25.988281 11.378906 26.007812 10.734375 C 25.847656 10.804688 25.773438 10.96875 25.675781 11.101562 M 23.535156 10.75 C 23.539062 10.894531 23.519531 11.046875 23.554688 11.191406 C 23.683594 11.417969 23.863281 11.609375 24.011719 11.824219 C 24.128906 11.988281 24.230469 12.175781 24.410156 12.28125 C 24.417969 12.132812 24.425781 11.984375 24.40625 11.835938 C 24.199219 11.46875 23.917969 11.152344 23.664062 10.816406 C 23.632812 10.800781 23.566406 10.765625 23.535156 10.75 M 23.542969 11.804688 C 23.535156 11.964844 23.527344 12.125 23.542969 12.28125 C 23.6875 12.5 23.863281 12.699219 24.003906 12.917969 C 24.113281 13.066406 24.207031 13.257812 24.40625 13.289062 C 24.402344 13.148438 24.429688 13.003906 24.402344 12.863281 C 23.742188 11.921875 23.6875 11.875 23.542969 11.804688 M 25.5625 12.324219 C 25.4375 12.511719 25.289062 12.6875 25.164062 12.875 C 25.148438 13.027344 25.15625 13.175781 25.160156 13.328125 C 25.230469 13.289062 25.308594 13.253906 25.347656 13.179688 C 25.558594 12.875 25.804688 12.59375 26.007812 12.285156 C 26.023438 12.117188 26.011719 11.949219 26 11.78125 C 25.808594 11.921875 25.703125 12.136719 25.5625 12.324219 M 25.570312 13.410156 C 25.425781 13.609375 25.253906 13.789062 25.136719 14.007812 C 25.113281 14.144531 25.152344 14.277344 25.164062 14.414062 C 25.46875 14.207031 25.617188 13.839844 25.867188 13.574219 C 26.054688 13.394531 26.011719 13.128906 26 12.894531 C 25.808594 13.019531 25.707031 13.234375 25.570312 13.410156 M 23.535156 12.929688 C 23.535156 13.070312 23.523438 13.214844 23.546875 13.355469 C 23.675781 13.566406 23.84375 13.753906 23.976562 13.960938 C 24.109375 14.132812 24.214844 14.339844 24.410156 14.441406 C 24.378906 13.78125 24.621094 14.285156 23.773438 13.09375 C 23.71875 13.003906 23.632812 12.953125 23.535156 12.929688 M 11.652344 24.28125 C 11.5625 24.488281 11.445312 24.683594 11.410156 24.90625 C 14.5 24.917969 17.589844 24.914062 20.679688 24.910156 C 20.527344 24.46875 16.164062 14.835938 16.015625 14.671875 C 14.550781 17.871094 13.109375 21.078125 11.652344 24.28125 M 33.480469 14.707031 C 28.667969 25.328125 28.925781 24.703125 28.894531 24.910156 C 31.984375 24.914062 35.078125 24.914062 38.167969 24.910156 C 38.09375 24.652344 35.488281 18.960938 33.636719 14.859375 C 33.605469 14.785156 33.578125 14.695312 33.480469 14.707031 Z M 33.480469 14.707031 " fill-opacity="1" fill-rule="nonzero"/></svg>